<svg width="48" height="48" viewBox="0 0 48 48" fill="none" xmlns="http://www.w3.org/2000/svg">
<path d="M0 8C0 3.58172 3.58172 0 8 0H40C44.4183 0 48 3.58172 48 8V40C48 44.4183 44.4183 48 40 48H8C3.58172 48 0 44.4183 0 40V8Z" fill="#E40646"/>
<path fill-rule="evenodd" clip-rule="evenodd" d="M20.4981 11.7695C17.4945 11.7695 15.0597 14.2043 15.0597 17.2078C15.0597 20.2114 17.4945 22.6462 20.4981 22.6462C23.5016 22.6462 25.9364 20.2114 25.9364 17.2078C25.9364 14.2043 23.5016 11.7695 20.4981 11.7695ZM13.3264 17.2078C13.3264 13.247 16.5372 10.0361 20.4981 10.0361C24.4589 10.0361 27.6698 13.247 27.6698 17.2078C27.6698 21.1687 24.4589 24.3795 20.4981 24.3795C16.5372 24.3795 13.3264 21.1687 13.3264 17.2078ZM28.8292 11.1725C29.0422 10.7439 29.5624 10.5691 29.991 10.7821C32.3504 11.9546 33.9748 14.3907 33.9748 17.2078C33.9748 20.025 32.3504 22.4611 29.991 23.6336C29.5624 23.8466 29.0422 23.6718 28.8292 23.2432C28.6162 22.8145 28.791 22.2944 29.2196 22.0814C31.0124 21.1904 32.2415 19.3419 32.2415 17.2078C32.2415 15.0738 31.0124 13.2252 29.2196 12.3343C28.791 12.1213 28.6162 11.6011 28.8292 11.1725ZM20.4981 28.5829C16.8648 28.5829 13.593 30.564 11.4945 33.7147C11.2375 34.1007 11.0922 34.3219 11.0044 34.5011C10.8373 34.8418 11.0495 35.1817 11.4359 35.2266C11.679 35.2549 12.0068 35.2563 12.543 35.2563H28.4531C28.9894 35.2563 29.3171 35.2549 29.5603 35.2266C29.922 35.1845 30.1773 34.8795 29.9917 34.5011C29.9039 34.3219 29.7586 34.1007 29.5016 33.7147C27.4031 30.564 24.1313 28.5829 20.4981 28.5829ZM10.0519 32.7539C12.4211 29.1966 16.1992 26.8496 20.4981 26.8496C24.7969 26.8496 28.575 29.1966 30.9442 32.7539C31.1572 33.0736 31.3786 33.3923 31.5481 33.7381C31.7129 34.0742 31.8193 34.4339 31.7939 34.8577C31.7737 35.194 31.6603 35.5189 31.5173 35.7859C31.3744 36.0529 31.1668 36.3273 30.8981 36.5306C30.5412 36.8005 30.1487 36.9032 29.7605 36.9483C29.4052 36.9897 28.9752 36.9896 28.4979 36.9896H12.4983C12.0209 36.9896 11.5909 36.9897 11.2356 36.9483C10.8475 36.9032 10.4549 36.8005 10.098 36.5306C9.82928 36.3273 9.62175 36.0529 9.47878 35.7859C9.3358 35.5189 9.22242 35.194 9.20224 34.8577C9.1768 34.4339 9.28324 34.0742 9.44803 33.7381C9.61753 33.3923 9.83891 33.0736 10.0519 32.7539ZM31.6331 28.4998C31.848 28.072 32.3689 27.8995 32.7966 28.1143C34.9912 29.2168 36.8557 30.9769 38.2093 33.1573C38.437 33.5241 38.6763 33.8842 38.7523 34.3745C38.8327 34.8935 38.6926 35.4071 38.4683 35.8104C38.244 36.2136 37.8815 36.6036 37.3981 36.809C36.9351 37.0057 36.4277 36.9896 35.9104 36.9896C35.4317 36.9896 35.0437 36.6016 35.0437 36.1229C35.0437 35.6443 35.4317 35.2563 35.9104 35.2563C36.5746 35.2563 36.6581 35.2401 36.7203 35.2137C36.9053 35.1351 37.0702 34.8386 37.0394 34.6399C37.028 34.5663 37.0145 34.5192 36.7366 34.0715C35.537 32.1391 33.9037 30.6102 32.0185 29.6632C31.5908 29.4484 31.4183 28.9275 31.6331 28.4998Z" fill="white"/>
</svg>
