<svg width="48" height="48" viewBox="0 0 48 48" fill="none" xmlns="http://www.w3.org/2000/svg">
<path d="M0 8C0 3.58172 3.58172 0 8 0H40C44.4183 0 48 3.58172 48 8V40C48 44.4183 44.4183 48 40 48H8C3.58172 48 0 44.4183 0 40V8Z" fill="#0698D6"/>
<path fill-rule="evenodd" clip-rule="evenodd" d="M17.6987 16.7076V19.9111C17.6987 20.3898 18.0867 20.7778 18.5653 20.7778C19.044 20.7778 19.432 20.3898 19.432 19.9111V16.7016L28.5684 16.7017V19.9111C28.5684 20.3898 28.9564 20.7778 29.4351 20.7778C29.9137 20.7778 30.3017 20.3898 30.3017 19.9111V16.7076C30.6967 16.7135 31.0316 16.7251 31.326 16.7482C31.9016 16.7933 32.2536 16.8784 32.5344 17.0117C33.1097 17.2848 33.5907 17.7229 33.9163 18.2702C34.0753 18.5373 34.1928 18.8798 34.2915 19.4487C34.392 20.0281 34.4623 20.7715 34.5614 21.829L35.3766 30.5248C35.4939 31.7759 35.5761 32.6603 35.5824 33.3526C35.5886 34.0356 35.5178 34.446 35.3807 34.7653C35.0969 35.4257 34.5996 35.9718 33.9685 36.316C33.6635 36.4823 33.2615 36.5911 32.5808 36.6487C31.891 36.7071 31.0028 36.7078 29.7462 36.7078H18.2543C16.9977 36.7078 16.1094 36.7071 15.4196 36.6487C14.7389 36.5911 14.3369 36.4823 14.0319 36.316C13.4008 35.9718 12.9035 35.4257 12.6197 34.7653C12.4826 34.446 12.4119 34.0356 12.418 33.3526C12.4243 32.6603 12.5065 31.7759 12.6238 30.5248L13.439 21.829C13.5381 20.7715 13.6085 20.0281 13.7089 19.4487C13.8076 18.8798 13.9252 18.5373 14.0841 18.2702C14.4097 17.7229 14.8907 17.2848 15.466 17.0117C15.7468 16.8784 16.0988 16.7933 16.6744 16.7482C16.9688 16.7251 17.3037 16.7135 17.6987 16.7076ZM30.2433 14.9733C30.6996 14.9792 31.1029 14.9921 31.4615 15.0202C32.1418 15.0735 32.7289 15.1853 33.2777 15.4459C34.1637 15.8664 34.9045 16.5411 35.406 17.384C35.7166 17.9061 35.8827 18.4802 35.9993 19.1525C36.1128 19.8067 36.1888 20.6179 36.2839 21.6317L37.1061 30.4023C37.2189 31.6051 37.3086 32.5626 37.3156 33.3369C37.3228 34.1288 37.2463 34.8139 36.9732 35.4495C36.5362 36.4667 35.7704 37.3077 34.7985 37.8377C34.1911 38.169 33.5161 38.309 32.727 38.3758C31.9555 38.4411 30.9939 38.4411 29.7858 38.4411H18.2146C17.0065 38.4411 16.0449 38.4411 15.2734 38.3758C14.4843 38.309 13.8093 38.169 13.202 37.8377C12.23 37.3077 11.4642 36.4667 11.0272 35.4495C10.7541 34.8139 10.6776 34.1288 10.6848 33.3369C10.6918 32.5626 10.7815 31.6052 10.8943 30.4024L11.7166 21.6316C11.8116 20.6178 11.8876 19.8067 12.0011 19.1525C12.1177 18.4801 12.2838 17.9061 12.5944 17.384C13.0959 16.5411 13.8367 15.8664 14.7227 15.4459C15.2716 15.1853 15.8586 15.0735 16.5389 15.0202C16.8975 14.9921 17.3009 14.9792 17.7571 14.9733C18.1772 11.9007 20.8123 9.53345 24.0002 9.53345C27.1882 9.53345 29.8232 11.9007 30.2433 14.9733ZM28.4863 14.9683C28.0814 12.8598 26.2268 11.2668 24.0002 11.2668C21.7736 11.2668 19.919 12.8598 19.5141 14.9683L28.4863 14.9683Z" fill="white"/>
</svg>
