<svg width="48" height="48" viewBox="0 0 48 48" fill="none" xmlns="http://www.w3.org/2000/svg">
<path d="M0 8C0 3.58172 3.58172 0 8 0H40C44.4183 0 48 3.58172 48 8V40C48 44.4183 44.4183 48 40 48H8C3.58172 48 0 44.4183 0 40V8Z" fill="#EF8019"/>
<path fill-rule="evenodd" clip-rule="evenodd" d="M14.2105 9.13354C14.6891 9.13354 15.0772 9.52156 15.0772 10.0002V13.3967H18.421C18.8997 13.3967 19.2877 13.7847 19.2877 14.2634C19.2877 14.742 18.8997 15.13 18.421 15.13H15.0772V18.5265C15.0772 19.0052 14.6891 19.3932 14.2105 19.3932C13.7318 19.3932 13.3438 19.0052 13.3438 18.5265V15.13H9.99997C9.52132 15.13 9.1333 14.742 9.1333 14.2634C9.1333 13.7847 9.52132 13.3967 9.99997 13.3967H13.3438V10.0002C13.3438 9.52156 13.7318 9.13354 14.2105 9.13354ZM32.6238 12.3431C31.9657 12.2886 31.1233 12.2879 29.9298 12.2879H24.0351C23.5564 12.2879 23.1684 11.8999 23.1684 11.4213C23.1684 10.9426 23.5564 10.5546 24.0351 10.5546L29.968 10.5546C31.1147 10.5546 32.0288 10.5546 32.7667 10.6156C33.5233 10.6782 34.1712 10.8094 34.765 11.1157C35.7212 11.609 36.4966 12.395 36.9819 13.3594C37.2826 13.957 37.4115 14.6089 37.4731 15.3726C37.5333 16.1184 37.5333 17.0429 37.5333 18.205V30.2165C37.5333 31.3786 37.5333 32.303 37.4731 33.0489C37.4115 33.8125 37.2826 34.4645 36.9819 35.0621C36.4966 36.0264 35.7212 36.8125 34.765 37.3058C34.1712 37.6121 33.5233 37.7433 32.7667 37.8058C32.0288 37.8669 31.1147 37.8669 29.9681 37.8669H18.102C16.9554 37.8669 16.0413 37.8669 15.3034 37.8058C14.5468 37.7433 13.8989 37.6121 13.3051 37.3058C12.3489 36.8125 11.5735 36.0264 11.0882 35.0621C10.7875 34.4645 10.6586 33.8125 10.597 33.0489C10.5368 32.3031 10.5368 31.3787 10.5368 30.2166L10.5368 24.2107C10.5368 23.7321 10.9248 23.3441 11.4035 23.3441C11.8821 23.3441 12.2701 23.7321 12.2701 24.2107V30.1792C12.2701 31.3871 12.2708 32.2415 12.3247 32.9095C12.3778 33.5676 12.4784 33.9685 12.6366 34.2829C12.9586 34.9229 13.4715 35.4412 14.0998 35.7653C14.4067 35.9236 14.7986 36.0248 15.4463 36.0784C16.1044 36.1329 16.9468 36.1335 18.1403 36.1335H29.9298C31.1233 36.1335 31.9657 36.1329 32.6238 36.0784C33.2715 36.0248 33.6634 35.9236 33.9703 35.7653C34.5986 35.4412 35.1115 34.9229 35.4335 34.2829C35.5918 33.9685 35.6923 33.5676 35.7454 32.9095C35.7993 32.2415 35.8 31.3871 35.8 30.1792V18.2423C35.8 17.0344 35.7993 16.1799 35.7454 15.512C35.6923 14.8539 35.5918 14.453 35.4335 14.1386C35.1115 13.4986 34.5986 12.9803 33.9703 12.6561C33.6634 12.4978 33.2715 12.3966 32.6238 12.3431ZM24.0351 16.2388C24.5137 16.2388 24.9017 16.6268 24.9017 17.1055V31.316C24.9017 31.7946 24.5137 32.1827 24.0351 32.1827C23.5564 32.1827 23.1684 31.7946 23.1684 31.316V17.1055C23.1684 16.6268 23.5564 16.2388 24.0351 16.2388ZM29.6491 21.923C30.1277 21.923 30.5158 22.311 30.5158 22.7897V31.316C30.5158 31.7946 30.1277 32.1827 29.6491 32.1827C29.1704 32.1827 28.7824 31.7946 28.7824 31.316V22.7897C28.7824 22.311 29.1704 21.923 29.6491 21.923ZM18.421 24.7651C18.8997 24.7651 19.2877 25.1531 19.2877 25.6318V31.316C19.2877 31.7946 18.8997 32.1827 18.421 32.1827C17.9424 32.1827 17.5544 31.7946 17.5544 31.316V25.6318C17.5544 25.1531 17.9424 24.7651 18.421 24.7651Z" fill="white"/>
</svg>
