<svg width="48" height="48" viewBox="0 0 48 48" fill="none" xmlns="http://www.w3.org/2000/svg">
<path d="M0 8C0 3.58172 3.58172 0 8 0H40C44.4183 0 48 3.58172 48 8V40C48 44.4183 44.4183 48 40 48H8C3.58172 48 0 44.4183 0 40V8Z" fill="#5B57A2"/>
<path fill-rule="evenodd" clip-rule="evenodd" d="M11.5353 13.7244C11.2629 13.9701 11.2321 14.1305 11.2321 14.1947C11.2321 14.2589 11.2629 14.4193 11.5353 14.665C11.8075 14.9106 12.2501 15.1715 12.8708 15.4083C14.1062 15.8797 15.8715 16.1894 17.8644 16.1894C19.8573 16.1894 21.6225 15.8797 22.858 15.4083C23.4787 15.1715 23.9213 14.9106 24.1935 14.665C24.4658 14.4193 24.4967 14.2589 24.4967 14.1947C24.4967 14.1305 24.4658 13.9701 24.1935 13.7244C23.9213 13.4789 23.4787 13.218 22.858 12.9811C21.6225 12.5097 19.8573 12.2 17.8644 12.2C15.8715 12.2 14.1062 12.5097 12.8708 12.9811C12.2501 13.218 11.8075 13.4789 11.5353 13.7244ZM24.5203 16.5427C24.6113 16.9239 24.9542 17.2074 25.3633 17.2074C25.842 17.2074 26.23 16.8194 26.23 16.3408V14.1947C26.23 13.4688 25.8411 12.8764 25.3546 12.4374C24.8678 11.9984 24.2122 11.6427 23.4759 11.3617C21.9973 10.7975 20.013 10.4667 17.8644 10.4667C15.7157 10.4667 13.7315 10.7975 12.2529 11.3617C11.5165 11.6427 10.8609 11.9984 10.3742 12.4374C9.88763 12.8764 9.49878 13.4688 9.49878 14.1947V31.363C9.49878 32.089 9.88763 32.6813 10.3742 33.1203C10.8609 33.5594 11.5165 33.9151 12.2529 34.196C13.7315 34.7603 15.7157 35.0911 17.8644 35.0911C18.343 35.0911 18.7311 34.703 18.7311 34.2244C18.7311 33.7458 18.343 33.3577 17.8644 33.3577C15.8715 33.3577 14.1062 33.048 12.8708 32.5766C12.2501 32.3398 11.8075 32.0789 11.5353 31.8333C11.2629 31.5876 11.2321 31.4272 11.2321 31.363V28.0016C11.5456 28.1777 11.8894 28.3346 12.2529 28.4733C13.7315 29.0375 15.7157 29.3683 17.8644 29.3683C18.343 29.3683 18.7311 28.9803 18.7311 28.5016C18.7311 28.023 18.343 27.635 17.8644 27.635C15.8715 27.635 14.1062 27.3252 12.8708 26.8538C12.2501 26.617 11.8075 26.3561 11.5353 26.1105C11.2629 25.8648 11.2321 25.7044 11.2321 25.6403V22.2788C11.4753 22.4154 11.7358 22.54 12.0084 22.6532C13.3561 23.2129 15.1689 23.5651 17.1529 23.6334C17.3874 23.6414 17.6247 23.6455 17.8644 23.6455C18.343 23.6455 18.7311 23.2575 18.7311 22.7789C18.7311 22.3002 18.343 21.9122 17.8644 21.9122C17.6445 21.9122 17.427 21.9084 17.2124 21.9011C15.3743 21.8378 13.7786 21.5115 12.6732 21.0524C12.1182 20.8219 11.7296 20.5755 11.4933 20.3487C11.2592 20.124 11.2321 19.9788 11.2321 19.9175V16.556C11.5456 16.7322 11.8894 16.8891 12.2529 17.0277C13.7315 17.592 15.7157 17.9228 17.8644 17.9228C20.013 17.9228 21.9973 17.592 23.4759 17.0277C23.8485 16.8856 24.2005 16.7243 24.5203 16.5427ZM23.8063 23.0239C23.5339 23.2696 23.5031 23.43 23.5031 23.4942C23.5031 23.5584 23.5339 23.7188 23.8063 23.9645C24.0785 24.2101 24.5211 24.471 25.1418 24.7078C26.3772 25.1792 28.1425 25.4889 30.1354 25.4889C32.1283 25.4889 33.8935 25.1792 35.129 24.7078C35.7497 24.471 36.1923 24.2101 36.4645 23.9645C36.7368 23.7188 36.7677 23.5584 36.7677 23.4942C36.7677 23.43 36.7368 23.2696 36.4645 23.0239C36.1923 22.7784 35.7497 22.5175 35.129 22.2806C33.8935 21.8092 32.1283 21.4995 30.1354 21.4995C28.1425 21.4995 26.3772 21.8092 25.1418 22.2806C24.5211 22.5175 24.0785 22.7784 23.8063 23.0239ZM36.7677 25.8555C36.4541 26.0317 36.1104 26.1886 35.7469 26.3272C34.2683 26.8915 32.284 27.2223 30.1354 27.2223C27.9867 27.2223 26.0025 26.8915 24.5239 26.3272C24.1604 26.1886 23.8166 26.0317 23.5031 25.8555V28.8593C23.5031 28.9235 23.5339 29.0839 23.8063 29.3296C24.0785 29.5752 24.5211 29.836 25.1418 30.0729C26.3772 30.5443 28.1425 30.854 30.1354 30.854C32.1283 30.854 33.8935 30.5443 35.129 30.0729C35.7497 29.836 36.1923 29.5752 36.4645 29.3296C36.7368 29.0839 36.7677 28.9235 36.7677 28.8593V25.8555ZM38.501 23.4942C38.501 22.7683 38.1121 22.1759 37.6255 21.7369C37.1388 21.2978 36.4832 20.9422 35.7469 20.6612C34.2683 20.097 32.284 19.7662 30.1354 19.7662C27.9867 19.7662 26.0025 20.097 24.5239 20.6612C23.7875 20.9422 23.1319 21.2978 22.6452 21.7369C22.1586 22.1759 21.7698 22.7683 21.7698 23.4942V34.2244C21.7698 34.9504 22.1586 35.5427 22.6452 35.9817C23.1319 36.4208 23.7875 36.7765 24.5239 37.0574C26.0025 37.6216 27.9867 37.9524 30.1354 37.9524C32.284 37.9524 34.2683 37.6216 35.7469 37.0574C36.4832 36.7765 37.1388 36.4208 37.6255 35.9817C38.1121 35.5427 38.501 34.9504 38.501 34.2244V23.4942ZM36.7677 31.2206C36.4541 31.3968 36.1104 31.5536 35.7469 31.6923C34.2683 32.2565 32.284 32.5874 30.1354 32.5874C27.9867 32.5874 26.0025 32.2565 24.5239 31.6923C24.1604 31.5536 23.8166 31.3968 23.5031 31.2206V34.2244C23.5031 34.2886 23.5339 34.449 23.8063 34.6947C24.0785 34.9403 24.5211 35.2011 25.1418 35.438C26.3772 35.9094 28.1425 36.2191 30.1354 36.2191C32.1283 36.2191 33.8935 35.9094 35.129 35.438C35.7497 35.2011 36.1923 34.9403 36.4645 34.6947C36.7368 34.449 36.7677 34.2886 36.7677 34.2244V31.2206Z" fill="white"/>
</svg>
